# xmcd
#
# Track frame offsets: 
#        182
#        15032
#        31982
#        49932
#        87807
#        110332
#        133532
#        156570
#        185020
#        217832
#
# Disc length: 3394 seconds
#
# Revision: 3
# Processed by: cddbd v1.5.2PL0 Copyright (c) Steve Scherf et al.
# Submitted via: ExactAudioCopy v0.95b4
#
DISCID=790d400a
DTITLE=Led Zeppelin - Page and Plant - And Others - Rock and Roll Hall Of 
DTITLE=Fame Induction Ceremony
DYEAR=1995
DGENRE=Rock
TTITLE0=Bring It On Home
TTITLE1=Long Distance Call Blues
TTITLE2=Baby Please Don't Go
TTITLE3=Medley - When The Levee Breaks - For What It's Worth
TTITLE4=Wonderfull One
TTITLE5=When The Levee Breaks
TTITLE6=29 Palms
TTITLE7=What Is And What Should Never Be
TTITLE8=Ship Of Fools
TTITLE9=Whole Lotta Love
EXTD=Tracks 7 - 10  Robert Plant only recorded live at the Parkpop Fes
EXTD=t, Denhaag, Holland  06 - 26 - 93  \n\nTracks 1 - 3\nwith Steven 
EXTD=Tyler - \nBand -  \nJ. Page - guitar\nR. Plant - vocal\nJ.P. Jone
EXTD=s - bass\nJ. Bonham - drums\nJ. Perry - guitar\nS. Tyler - vocal 
EXTD=(Aerosmith]\n\nTrack 4 - Rock and Roll Hall of Fame Ceremony 1995
EXTD=(Band]\nJ. Page  (guitar]\nR.Plant - (vocal, guitar]\nJ.P.Jone
EXTD=s - (bass]\nM.Lee - (drums]\nNeil Young - (guitar]\n YEAR: 1995
EXTT0=
EXTT1=
EXTT2=
EXTT3=
EXTT4=
EXTT5=
EXTT6=
EXTT7=
EXTT8=
EXTT9=
PLAYORDER=
